<svg width="100" height="100" viewBox="0 0 100 100" fill="none" xmlns="http://www.w3.org/2000/svg" class="s-ion-icon">
<path fill-rule="evenodd" clip-rule="evenodd" d="M73.1448 19.1922L73.1503 19.1922C73.6038 19.1855 74.0453 19.0455 74.4227 18.7893C74.7958 18.536 75.0904 18.1799 75.2732 17.7632C75.5674 17.1774 75.6282 16.4977 75.443 15.867C75.2564 15.2314 74.8341 14.6942 74.2644 14.3724L74.2595 14.3697C66.2547 9.97532 58.9367 8.00031 50.5606 8.00021C42.2232 7.97534 34.0239 10.1847 26.7725 14.4099L26.7625 14.4161C26.2068 14.7591 25.8009 15.3054 25.6249 15.9426C25.449 16.5795 25.5156 17.2615 25.8118 17.8504L25.8151 17.8572L25.8187 17.8638C26.4748 19.0703 27.9103 19.5721 29.1001 18.8811L29.1017 18.8802C35.6888 15.0181 42.9295 13.0868 50.5599 13.0868C58.2217 13.0868 64.6081 14.8069 72.0197 18.8822C72.3608 19.086 72.7491 19.1932 73.1448 19.1922Z" fill="#FF0000"></path>
<path fill-rule="evenodd" clip-rule="evenodd" d="M41.763 91.1345L41.7689 91.1343C42.4333 91.1192 43.0646 90.8397 43.5303 90.357L43.5376 90.3494L43.5446 90.3415C43.9754 89.8522 44.213 89.2173 44.213 88.56C44.213 87.9027 43.9755 87.2677 43.5447 86.7784L43.5372 86.7703C40.5613 83.5496 38.8715 81.5481 36.4036 76.82L36.4023 76.8176C34.0691 72.4112 32.8371 66.9657 32.8371 61.0478C32.8371 51.2579 40.775 43.2814 50.5296 43.2814C60.2817 43.2814 68.2102 51.2542 68.2137 61.0415C68.2052 61.368 68.2602 61.6932 68.3755 61.9981C68.4917 62.3052 68.6668 62.5857 68.891 62.8228C69.1151 63.06 69.3836 63.2489 69.6809 63.378C69.9782 63.5071 70.2979 63.5738 70.6211 63.5738C70.9443 63.5738 71.2641 63.5071 71.5613 63.378C71.8586 63.2489 72.1271 63.06 72.3513 62.8228C72.5754 62.5857 72.7505 62.3052 72.8667 61.9981C72.982 61.6932 73.037 61.3679 73.0286 61.0413C73.0251 48.4526 62.9252 38.1948 50.5211 38.1948C38.1148 38.1948 28.0205 48.4563 28.0205 61.0478C28.0205 67.797 29.4261 74.1044 32.1622 79.2914C34.786 84.3508 36.6483 86.718 40.0547 90.359C40.2673 90.6038 40.5285 90.7999 40.8214 90.9338C41.1174 91.0692 41.4386 91.1377 41.763 91.1345Z" fill="#FF0000"></path>
<path fill-rule="evenodd" clip-rule="evenodd" d="M69.6786 83.4508H70.1397V83.435C71.5959 83.3934 73.0464 83.2268 74.4761 82.9367C75.1194 82.8097 75.6857 82.4263 76.0521 81.873C76.4178 81.3208 76.5553 80.6435 76.4359 79.9887C76.2024 78.5982 74.9693 77.647 73.6386 77.9086C72.3314 78.1551 71.0068 78.2912 69.678 78.3157C65.8647 78.3151 62.731 77.388 60.0583 75.4604L60.0562 75.4589C57.7921 73.8452 55.9403 71.6929 54.659 69.1848C53.3791 66.6793 52.7065 63.8932 52.6987 61.0631C52.7106 60.7351 52.6585 60.4078 52.5454 60.1004C52.431 59.7896 52.2564 59.5054 52.0319 59.2649C51.8073 59.0244 51.5374 58.8326 51.238 58.7014C50.9386 58.5703 50.6163 58.5026 50.2904 58.5026C49.9645 58.5026 49.6421 58.5703 49.3427 58.7014C49.0434 58.8326 48.7734 59.0244 48.5489 59.2649C48.3243 59.5054 48.1498 59.7896 48.0354 60.1004C47.9221 60.4082 47.87 60.736 47.8821 61.0644C47.8933 64.7144 48.7572 68.3087 50.4017 71.5451C52.0471 74.7834 54.426 77.5689 57.3388 79.6667C60.7758 82.1814 64.9612 83.4508 69.6786 83.4508Z" fill="#FF0000"></path>
<path d="M15.0337 38.8752C15.14 39.5349 15.4916 40.1282 16.0167 40.5292L16.0251 40.5354C16.4308 40.8309 16.9154 40.9922 17.414 40.997C17.8048 41.0085 18.1909 40.9104 18.5308 40.7137C18.866 40.5198 19.1433 40.2375 19.3346 39.8973C22.7979 34.7364 27.1787 30.6412 32.4004 27.7747L32.4013 27.7741C32.6553 27.634 32.9109 27.497 33.1681 27.3633C43.7922 21.8407 57.1303 21.8388 67.7913 27.324C68.0503 27.4573 68.3081 27.594 68.5639 27.7338C73.7508 30.5612 78.1335 34.6188 81.5972 39.7907C81.7721 40.0653 81.9999 40.301 82.2672 40.4829C82.5361 40.6659 82.8392 40.7906 83.1577 40.8489C83.4761 40.9071 83.8029 40.8976 84.1176 40.8209C84.4322 40.7443 84.7277 40.6022 84.986 40.4039C85.5096 40.0022 85.8601 39.4092 85.9662 38.7503C86.0723 38.0914 85.9264 37.4154 85.5577 36.8634C81.6619 31.0302 76.7018 26.4511 70.7928 23.2162C58.3904 16.4122 42.5713 16.4615 30.2091 23.2577C24.2973 26.4932 19.3392 31.1144 15.444 36.9881C15.0742 37.5397 14.9276 38.2161 15.0337 38.8752Z" fill="#FF0000"></path>
<path d="M61.8315 91.9993L61.8474 92L61.8632 91.9996C62.4045 91.9849 62.9239 91.7816 63.3363 91.4246C63.7453 91.0705 64.0249 90.5863 64.1318 90.0508C64.4509 88.7607 63.7619 87.3323 62.445 86.9654C57.0307 85.3605 53.5653 83.249 49.919 79.4078C45.2932 74.5142 42.7653 67.9791 42.7653 60.9993C42.7653 56.8202 46.1734 53.4086 50.4032 53.4086C54.6326 53.4086 58.041 56.8268 58.0395 61.0062C58.0395 67.9895 63.6165 73.6836 70.4939 73.6836C77.3713 73.6836 82.9484 67.9895 82.9484 61.0062C82.9484 42.8062 68.3347 28.0192 50.3628 28.0192C37.6053 28.0192 25.9543 35.6379 20.7 47.3995C18.9177 51.4067 18.0113 56.0076 18.0113 61.048C18.0135 66.7087 18.9845 72.325 20.88 77.6405C20.981 77.9479 21.1412 78.2317 21.3514 78.4751C21.5631 78.7202 21.8212 78.9192 22.1105 79.0598C22.3998 79.2005 22.714 79.2798 23.0343 79.2926C23.3532 79.3054 23.6712 79.2522 23.9692 79.1362C25.2416 78.6637 25.8368 77.178 25.3694 75.883C23.0565 69.3036 22.7892 64.2521 22.7892 61.0478C22.7892 56.7843 23.5607 52.9064 25.0452 49.6122L25.0457 49.6111C29.5252 39.6037 39.4838 33.1473 50.3628 33.1473C65.6861 33.1473 78.1318 45.6508 78.1318 61.0478C78.1318 65.2269 74.7238 68.6385 70.4939 68.6385C66.2641 68.6385 62.856 65.2269 62.856 61.0478C62.856 54.0645 57.2772 48.3704 50.4016 48.3704C43.5258 48.3704 37.9488 54.0646 37.9488 61.0478C37.9488 69.3877 40.9886 77.1879 46.5258 83.0505L46.5277 83.0524C50.8308 87.5575 54.9511 90.0489 61.2165 91.898L61.2183 91.8985C61.4181 91.9566 61.6239 91.9905 61.8315 91.9993Z" fill="#FF0000"></path>
</svg>