<svg xmlns="http://www.w3.org/2000/svg" xmlns:xlink="http://www.w3.org/1999/xlink" width="1280" height="205" viewBox="0 0 1280 205">
  <defs>
    <clipPath id="clip-download">
      <rect width="1280" height="205"/>
    </clipPath>
  </defs>
  <g id="download" clip-path="url(#clip-download)">
    <rect width="1280" height="205" fill="#fff"/>
    <g id="c" transform="translate(297 98.781)">
      <path id="Path_66" data-name="Path 66" d="M30.965,68.006H39.66c.814,0,1.247.39,1.257,1.117A1.2,1.2,0,0,1,39.645,70.4H22.423a1.394,1.394,0,0,1-.989-.322,1.19,1.19,0,0,1-.34-1.394A1.057,1.057,0,0,1,22.21,68C25.13,68.013,28.048,68.007,30.965,68.006Z" transform="translate(0 -37.427)" fill="#464d55"/>
      <path id="Path_67" data-name="Path 67" d="M36.87,83.02c1.83,0,3.66.036,5.488-.019a1.324,1.324,0,0,1,1.378,1.208,1.288,1.288,0,0,1-1.4,1.195H31.415c-.869,0-1.4-.468-1.414-1.213a1.046,1.046,0,0,1,1.153-1.171Z" transform="translate(-5.909 -47.276)" fill="#464d55"/>
      <path id="Path_68" data-name="Path 68" d="M40.31,20.166a5.028,5.028,0,0,0,2.052-4.015,5.506,5.506,0,0,0-10.989,0,5.028,5.028,0,0,0,2.052,4.015,6.868,6.868,0,0,0-3.349,4.917.876.876,0,0,0-.01.124.878.878,0,0,0-.066.32,1.089,1.089,0,0,0,.1.489,1.216,1.216,0,0,0,.309.415,1.411,1.411,0,0,0,.471.272,1.551,1.551,0,0,0,.555.084q5.437.019,10.875,0a1.551,1.551,0,0,0,.555-.084,1.411,1.411,0,0,0,.471-.272,1.216,1.216,0,0,0,.309-.415,1.089,1.089,0,0,0,.1-.489.885.885,0,0,0-.066-.325.886.886,0,0,0-.01-.119,6.868,6.868,0,0,0-3.349-4.917Zm.608,4.226a4.4,4.4,0,0,0-8.1,0q1.537,0,3.075,0h5.025ZM33.9,16.151a2.973,2.973,0,0,0,5.934,0,2.973,2.973,0,0,0-5.934,0Z" transform="translate(-5.909 0)" fill="blue" fill-rule="evenodd"/>
    </g>
    <g id="b" transform="translate(612 101.063)">
      <path id="Path_61" data-name="Path 61" d="M41.9,11.849h0a.8.8,0,0,0,.438-.139.828.828,0,0,0,.292-.353.894.894,0,0,0,.058-.652.871.871,0,0,0-.405-.514h0a16.269,16.269,0,0,0-16.33.014l0,0a.9.9,0,0,0-.391.525.918.918,0,0,0,.064.656v0a.814.814,0,0,0,1.128.35h0a14.661,14.661,0,0,1,14.759,0A.75.75,0,0,0,41.9,11.849Z" transform="translate(-6.908)" fill="red" fill-rule="evenodd"/>
      <path id="Path_62" data-name="Path 62" d="M32.746,56.4h0a.869.869,0,0,0,.606-.267l0,0,0,0a.931.931,0,0,0,0-1.225l0,0A13.349,13.349,0,0,1,30.9,51.478h0a11.631,11.631,0,0,1-1.226-5.423,6.083,6.083,0,1,1,12.166,0,.867.867,0,0,0,.056.329.851.851,0,0,0,.177.284.827.827,0,0,0,.272.191.81.81,0,0,0,.647,0,.828.828,0,0,0,.272-.191.851.851,0,0,0,.177-.284.868.868,0,0,0,.056-.329,7.74,7.74,0,1,0-15.478,0,13.487,13.487,0,0,0,1.424,6.274,14.574,14.574,0,0,0,2.714,3.806.778.778,0,0,0,.264.2A.76.76,0,0,0,32.746,56.4Z" transform="translate(-8.543 -19.811)" fill="red" fill-rule="evenodd"/>
      <path id="Path_63" data-name="Path 63" d="M55.377,67.082h.159v-.005a8.755,8.755,0,0,0,1.491-.171.848.848,0,0,0,.542-.366.887.887,0,0,0,.132-.648.831.831,0,0,0-.962-.715,8.162,8.162,0,0,1-1.362.14,5.446,5.446,0,0,1-3.308-.982h0a6,6,0,0,1-1.856-2.158,6.18,6.18,0,0,1-.674-2.793.868.868,0,0,0-.053-.331.852.852,0,0,0-.177-.287.829.829,0,0,0-.273-.194.811.811,0,0,0-.652,0,.829.829,0,0,0-.273.194.852.852,0,0,0-.177.287.868.868,0,0,0-.053.332,8.015,8.015,0,0,0,.866,3.6,7.782,7.782,0,0,0,2.386,2.793A7.044,7.044,0,0,0,55.377,67.082Z" transform="translate(-21.573 -33.135)" fill="red" fill-rule="evenodd"/>
      <path id="Path_64" data-name="Path 64" d="M15.012,25.269a.894.894,0,0,0,.338.569l0,0A.824.824,0,0,0,15.83,26a.724.724,0,0,0,.384-.1.747.747,0,0,0,.276-.281,12.837,12.837,0,0,1,4.493-4.169h0q.131-.072.264-.141A13.193,13.193,0,0,1,33.154,21.3q.134.069.266.141A12.683,12.683,0,0,1,37.9,25.583a.821.821,0,0,0,.23.238.8.8,0,0,0,.306.126.792.792,0,0,0,.33-.01.8.8,0,0,0,.3-.143.9.9,0,0,0,.337-.569.909.909,0,0,0-.14-.649,14.361,14.361,0,0,0-5.078-4.693A14.759,14.759,0,0,0,20.23,19.9a14.31,14.31,0,0,0-5.078,4.722A.908.908,0,0,0,15.012,25.269Z" transform="translate(0 -6.651)" fill="red"/>
      <path id="Path_65" data-name="Path 65" d="M33.081,50.021h.011a.807.807,0,0,0,.507-.2.843.843,0,0,0,.274-.472.876.876,0,0,0-.58-1.061,8.854,8.854,0,0,1-4.308-2.6,9.149,9.149,0,0,1-2.46-6.331,2.626,2.626,0,0,1,5.253,0,4.284,4.284,0,1,0,8.566,0,11.18,11.18,0,0,0-21.407-4.679,11.5,11.5,0,0,0-.925,4.694A17.013,17.013,0,0,0,19,45.084a.84.84,0,0,0,.162.287.817.817,0,0,0,.261.2.8.8,0,0,0,.639.026.872.872,0,0,0,.482-1.119,14.878,14.878,0,0,1-.887-5.1,9.562,9.562,0,0,1,.776-3.933h0a9.54,9.54,0,0,1,18.256,3.933,2.627,2.627,0,0,1-5.253,0,4.283,4.283,0,1,0-8.565,0,10.941,10.941,0,0,0,2.95,7.567h0a10.461,10.461,0,0,0,5.051,3.042h0A.89.89,0,0,0,33.081,50.021Z" transform="translate(-1.976 -13.135)" fill="red"/>
    </g>
    <g id="a" transform="translate(922 98.579)">
      <path id="Path_59" data-name="Path 59" d="M37.227,23.646V14.376c0-.917.4-1.378,1.193-1.376a1.269,1.269,0,0,1,1.3,1.4V27.19l.924-.924,0,0,.645-.645.338-.338a1.336,1.336,0,0,1,1.858-.114,1.352,1.352,0,0,1,.313.439,1.327,1.327,0,0,1,.115.523,1.289,1.289,0,0,1-.1.52,1.264,1.264,0,0,1-.3.431l-.878.885c-.55.555-.826.833-1.1,1.11s-.554.552-1.11,1.1l-.885.878a1.263,1.263,0,0,1-.431.3,1.289,1.289,0,0,1-.52.1,1.327,1.327,0,0,1-.523-.115A1.352,1.352,0,0,1,37.7,31.1a1.253,1.253,0,0,1-.1-.095c-1.2-1.193-1.6-1.585-1.995-1.98s-.787-.792-1.98-1.995a1.263,1.263,0,0,1-.3-.431,1.289,1.289,0,0,1-.1-.52,1.326,1.326,0,0,1,.115-.523,1.29,1.29,0,0,1,2.171-.316q.86.851,1.716,1.707C37.229,26.115,37.229,25.439,37.227,23.646Z" transform="translate(-10.904 0)" fill="#ffc409"/>
      <path id="Path_60" data-name="Path 60" d="M19.613,74.5A1.336,1.336,0,0,0,18.38,73.1a1.353,1.353,0,0,0-.531.089,1.326,1.326,0,0,0-.451.288,1.289,1.289,0,0,0-.3.44,1.263,1.263,0,0,0-.091.519c0,.566,0,.91-.006,1.106,0-.392,0-.2,0,0s0,.392,0,0c0,.178,0,.476.005.951a1.434,1.434,0,0,0,.092.674,1.289,1.289,0,0,0,.3.44,1.326,1.326,0,0,0,.451.289,1.352,1.352,0,0,0,.531.089h.036l.111,0h18.5a1.356,1.356,0,0,0,.261-.024A1.284,1.284,0,0,0,38.363,76.6q0-.085-.009-.165c0-.437,0-.716,0-.885,0,.392,0,.2,0,0s0-.392,0,0c0-.2,0-.54-.006-1.106a1.264,1.264,0,0,0-.091-.519,1.29,1.29,0,0,0-.3-.44,1.326,1.326,0,0,0-.451-.288,1.353,1.353,0,0,0-.531-.089A1.336,1.336,0,0,0,35.75,74.5v.478c0,.167,0,.3,0,.405H25.812q-3.1,0-6.2,0Z" transform="translate(0 -40.391)" fill="#ffc409"/>
    </g>
    <text id="Getting_started_is_quick_and_easy" data-name="Getting started is quick and easy" transform="translate(515 68)" fill="#00007b" font-size="16" font-family="Arial-BoldMT, Arial" font-weight="700"><tspan x="0" y="0">Getting started is quick and easy</tspan></text>
    <text id="Verify_Yourself" data-name="Verify Yourself" transform="translate(596 178)" fill="#00007b" font-size="14" font-family="ArialMT, Arial"><tspan x="0" y="0">Verify Yourself</tspan></text>
    <text id="Register_Yourself" data-name="Register Yourself" transform="translate(277 177)" fill="#00007b" font-size="14" font-family="ArialMT, Arial"><tspan x="0" y="0">Register Yourself</tspan></text>
    <text id="Fetching_your_Documents" data-name="Fetching your Documents" transform="translate(870 177)" fill="#00007b" font-size="14" font-family="ArialMT, Arial"><tspan x="0" y="0">Fetching your Documents</tspan></text>
    <g id="Icon_feather-arrow-right" data-name="Icon feather-arrow-right" transform="translate(482.231 120.43)">
      <path id="Path_69" data-name="Path 69" d="M7.5,18H22.57" transform="translate(0 -2.965)" fill="none" stroke="#00007b" stroke-linecap="round" stroke-linejoin="round" stroke-width="3"/>
      <path id="Path_70" data-name="Path 70" d="M18,7.5l7.535,7.535L18,22.57" transform="translate(-2.965)" fill="none" stroke="#00007b" stroke-linecap="round" stroke-linejoin="round" stroke-width="3"/>
    </g>
    <g id="Icon_feather-arrow-right-2" data-name="Icon feather-arrow-right" transform="translate(793.231 120.141)">
      <path id="Path_69-2" data-name="Path 69" d="M7.5,18H22.57" transform="translate(0 -2.965)" fill="none" stroke="#00007b" stroke-linecap="round" stroke-linejoin="round" stroke-width="3"/>
      <path id="Path_70-2" data-name="Path 70" d="M18,7.5l7.535,7.535L18,22.57" transform="translate(-2.965)" fill="none" stroke="#00007b" stroke-linecap="round" stroke-linejoin="round" stroke-width="3"/>
    </g>
  </g>
</svg>
